{"title":"Before Dawn  2012 DVDRip XViD juggs","uid":8363426,"size":747029576,"categoryP":"video","categoryS":"movies","magnet":"?xt=urn:btih:5494def3f11efb59347bbd23e9ab43fbb5da2daa&amp;dn=Before+Dawn++2012+DVDRip+XViD+juggs&amp;tr=udp%3A%2F%2Ftracker.openbittorrent.com%3A80&amp;tr=udp%3A%2F%2Fopen.demonii.com%3A1337&amp;tr=udp%3A%2F%2Ftracker.coppersurfer.tk%3A6969&amp;tr=udp%3A%2F%2Fexodus.desync.com%3A6969","seeders":1,"leechers":1,"uploader":"juggs99","files":2,"time":1365700622,"description":"Source : DVDR L-S (Thanks)\n &lt;a href=&quot;\nhttp://www.imdb.com/title/tt1928123/&quot; rel=&quot;nofollow&quot; target=&quot;_NEW&quot;&gt;\nhttp://www.imdb.com/title/tt1928123/&lt;/a&gt;\n\nFormat                                   : AVI\nFormat/Info                              : Audio Video Interleave\nFile size                                : 699 MiB\nDuration                                 : 1h 22mn\nOverall bit rate                         : 1 190 Kbps\nWriting library                          : VirtualDub build 32842/release\n\nVideo\nID                                       : 0\nFormat                                   : MPEG-4 Visual\nFormat profile                           : Advanced Simple@L5\nFormat settings, BVOP                    : 2\nFormat settings, QPel                    : No\nFormat settings, GMC                     : No warppoints\nFormat settings, Matrix                  : Default (H.263)\nMuxing mode                              : Packed bitstream\nCodec ID                                 : XVID\nCodec ID/Hint                            : XviD\nDuration                                 : 1h 22mn\nBit rate                                 : 1 006 Kbps\nWidth                                    : 640 pixels\nHeight                                   : 272 pixels\nDisplay aspect ratio                     : 2.25:1\nFrame rate                               : 25.000 fps\nColor space                              : YUV\nChroma subsampling                       : 4:2:0\nBit depth                                : 8 bits\nScan type                                : Progressive\nCompression mode                         : Lossy\nBits/(Pixel*Frame)                       : 0.231\nStream size                              : 591 MiB (85%)\nWriting library                          : XviD 1.2.0.dev47 (UTC 2006-11-01)\n\nAudio\nID                                       : 1\nFormat                                   : MPEG Audio\nFormat version                           : Version 1\nFormat profile                           : Layer 3\nMode                                     : Joint stereo\nMode extension                           : MS Stereo\nCodec ID                                 : 55\nCodec ID/Hint                            : MP3\nDuration                                 : 1h 22mn\nBit rate mode                            : Constant\nBit rate                                 : 128 Kbps\nChannel(s)                               : 2 channels\nSampling rate                            : 44.1 KHz\nCompression mode                         : Lossy\nStream size                              : 75.2 MiB (11%)\nAlignment                                : Split accross interleaves\nWriting library                          : LAME3.98.2\n &lt;a href=&quot;\nhttp://www.shotpix.com/images/84458752558992488256.png&quot; rel=&quot;nofollow&quot; target=&quot;_NEW&quot;&gt;\nhttp://www.shotpix.com/images/84458752558992488256.png&lt;/a&gt; &lt;a href=&quot;\nhttp://www.shotpix.com/images/73159686398649076495.png&quot; rel=&quot;nofollow&quot; target=&quot;_NEW&quot;&gt;\nhttp://www.shotpix.com/images/73159686398649076495.png&lt;/a&gt;","torrent":{"xt":"urn:btih:5494def3f11efb59347bbd23e9ab43fbb5da2daa","amp;dn":"Before+Dawn++2012+DVDRip+XViD+juggs","amp;tr":["udp%3A%2F%2Ftracker.openbittorrent.com%3A80","udp%3A%2F%2Fopen.demonii.com%3A1337","udp%3A%2F%2Ftracker.coppersurfer.tk%3A6969","udp%3A%2F%2Fexodus.desync.com%3A6969"],"infoHash":"5494def3f11efb59347bbd23e9ab43fbb5da2daa","infoHashBuffer":{"type":"Buffer","data":[84,148,222,243,241,30,251,89,52,123,189,35,233,171,67,251,181,218,45,170]},"announce":[],"urlList":[]}}